TITLE ""
FILE "LR_black_phrase_E_06.mp3" MP3
  TRACK 01 AUDIO
    TITLE "LR_black_phrase_E_06_001"
    INDEX 01 00:00:00
  TRACK 02 AUDIO
    TITLE "LR_black_phrase_E_06_002"
    INDEX 01 00:00:18
  TRACK 03 AUDIO
    TITLE "LR_black_phrase_E_06_003"
    INDEX 01 00:01:37
  TRACK 04 AUDIO
    TITLE "LR_black_phrase_E_06_004"
    INDEX 01 00:01:67
  TRACK 05 AUDIO
    TITLE "LR_black_phrase_E_06_005"
    INDEX 01 00:03:54
  TRACK 06 AUDIO
    TITLE "LR_black_phrase_E_06_006"
    INDEX 01 00:04:34
  TRACK 07 AUDIO
    TITLE "LR_black_phrase_E_06_007"
    INDEX 01 00:06:19
  TRACK 08 AUDIO
    TITLE "LR_black_phrase_E_06_008"
    INDEX 01 00:07:22
  TRACK 09 AUDIO
    TITLE "LR_black_phrase_E_06_009"
    INDEX 01 00:08:45
  TRACK 10 AUDIO
    TITLE "LR_black_phrase_E_06_010"
    INDEX 01 00:08:74
  TRACK 11 AUDIO
    TITLE "LR_black_phrase_E_06_011"
    INDEX 01 00:11:34
  TRACK 12 AUDIO
    TITLE "LR_black_phrase_E_06_012"
    INDEX 01 00:12:12
  TRACK 13 AUDIO
    TITLE "LR_black_phrase_E_06_013"
    INDEX 01 00:14:48
  TRACK 14 AUDIO
    TITLE "LR_black_phrase_E_06_014"
    INDEX 01 00:15:49
  TRACK 15 AUDIO
    TITLE "LR_black_phrase_E_06_015"
    INDEX 01 00:16:60
  TRACK 16 AUDIO
    TITLE "LR_black_phrase_E_06_016"
    INDEX 01 00:17:15
  TRACK 17 AUDIO
    TITLE "LR_black_phrase_E_06_017"
    INDEX 01 00:19:53
  TRACK 18 AUDIO
    TITLE "LR_black_phrase_E_06_018"
    INDEX 01 00:20:33
  TRACK 19 AUDIO
    TITLE "LR_black_phrase_E_06_019"
    INDEX 01 00:22:71
  TRACK 20 AUDIO
    TITLE "LR_black_phrase_E_06_020"
    INDEX 01 00:23:74
  TRACK 21 AUDIO
    TITLE "LR_black_phrase_E_06_021"
    INDEX 01 00:25:22
  TRACK 22 AUDIO
    TITLE "LR_black_phrase_E_06_022"
    INDEX 01 00:25:53
  TRACK 23 AUDIO
    TITLE "LR_black_phrase_E_06_023"
    INDEX 01 00:27:68
  TRACK 24 AUDIO
    TITLE "LR_black_phrase_E_06_024"
    INDEX 01 00:28:48
  TRACK 25 AUDIO
    TITLE "LR_black_phrase_E_06_025"
    INDEX 01 00:30:62
  TRACK 26 AUDIO
    TITLE "LR_black_phrase_E_06_026"
    INDEX 01 00:31:68
  TRACK 27 AUDIO
    TITLE "LR_black_phrase_E_06_027"
    INDEX 01 00:32:75
  TRACK 28 AUDIO
    TITLE "LR_black_phrase_E_06_028"
    INDEX 01 00:33:29
  TRACK 29 AUDIO
    TITLE "LR_black_phrase_E_06_029"
    INDEX 01 00:35:26
  TRACK 30 AUDIO
    TITLE "LR_black_phrase_E_06_030"
    INDEX 01 00:36:08
  TRACK 31 AUDIO
    TITLE "LR_black_phrase_E_06_031"
    INDEX 01 00:38:03
  TRACK 32 AUDIO
    TITLE "LR_black_phrase_E_06_032"
    INDEX 01 00:39:10
  TRACK 33 AUDIO
    TITLE "LR_black_phrase_E_06_033"
    INDEX 01 00:40:33
  TRACK 34 AUDIO
    TITLE "LR_black_phrase_E_06_034"
    INDEX 01 00:40:65
  TRACK 35 AUDIO
    TITLE "LR_black_phrase_E_06_035"
    INDEX 01 00:43:14
  TRACK 36 AUDIO
    TITLE "LR_black_phrase_E_06_036"
    INDEX 01 00:43:71
  TRACK 37 AUDIO
    TITLE "LR_black_phrase_E_06_037"
    INDEX 01 00:46:20
  TRACK 38 AUDIO
    TITLE "LR_black_phrase_E_06_038"
    INDEX 01 00:47:27
  TRACK 39 AUDIO
    TITLE "LR_black_phrase_E_06_039"
    INDEX 01 00:48:35
  TRACK 40 AUDIO
    TITLE "LR_black_phrase_E_06_040"
    INDEX 01 00:48:62
  TRACK 41 AUDIO
    TITLE "LR_black_phrase_E_06_041"
    INDEX 01 00:51:17
  TRACK 42 AUDIO
    TITLE "LR_black_phrase_E_06_042"
    INDEX 01 00:51:72
  TRACK 43 AUDIO
    TITLE "LR_black_phrase_E_06_043"
    INDEX 01 00:54:28
  TRACK 44 AUDIO
    TITLE "LR_black_phrase_E_06_044"
    INDEX 01 00:55:33
  TRACK 45 AUDIO
    TITLE "LR_black_phrase_E_06_045"
    INDEX 01 00:56:46
  TRACK 46 AUDIO
    TITLE "LR_black_phrase_E_06_046"
    INDEX 01 00:57:02
  TRACK 47 AUDIO
    TITLE "LR_black_phrase_E_06_047"
    INDEX 01 00:59:54
  TRACK 48 AUDIO
    TITLE "LR_black_phrase_E_06_048"
    INDEX 01 01:00:32
  TRACK 49 AUDIO
    TITLE "LR_black_phrase_E_06_049"
    INDEX 01 01:03:09
  TRACK 50 AUDIO
    TITLE "LR_black_phrase_E_06_050"
    INDEX 01 01:04:12
  TRACK 51 AUDIO
    TITLE "LR_black_phrase_E_06_051"
    INDEX 01 01:05:53
  TRACK 52 AUDIO
    TITLE "LR_black_phrase_E_06_052"
    INDEX 01 01:06:07
  TRACK 53 AUDIO
    TITLE "LR_black_phrase_E_06_053"
    INDEX 01 01:08:22
  TRACK 54 AUDIO
    TITLE "LR_black_phrase_E_06_054"
    INDEX 01 01:09:04
  TRACK 55 AUDIO
    TITLE "LR_black_phrase_E_06_055"
    INDEX 01 01:11:16
  TRACK 56 AUDIO
    TITLE "LR_black_phrase_E_06_056"
    INDEX 01 01:12:22
  TRACK 57 AUDIO
    TITLE "LR_black_phrase_E_06_057"
    INDEX 01 01:13:45
  TRACK 58 AUDIO
    TITLE "LR_black_phrase_E_06_058"
    INDEX 01 01:13:74
  TRACK 59 AUDIO
    TITLE "LR_black_phrase_E_06_059"
    INDEX 01 01:15:57
  TRACK 60 AUDIO
    TITLE "LR_black_phrase_E_06_060"
    INDEX 01 01:16:35
  TRACK 61 AUDIO
    TITLE "LR_black_phrase_E_06_061"
    INDEX 01 01:18:16
  TRACK 62 AUDIO
    TITLE "LR_black_phrase_E_06_062"
    INDEX 01 01:19:16
  TRACK 63 AUDIO
    TITLE "LR_black_phrase_E_06_063"
    INDEX 01 01:20:27
  TRACK 64 AUDIO
    TITLE "LR_black_phrase_E_06_064"
    INDEX 01 01:20:49
  TRACK 65 AUDIO
    TITLE "LR_black_phrase_E_06_065"
    INDEX 01 01:22:63
  TRACK 66 AUDIO
    TITLE "LR_black_phrase_E_06_066"
    INDEX 01 01:23:31
  TRACK 67 AUDIO
    TITLE "LR_black_phrase_E_06_067"
    INDEX 01 01:25:48
  TRACK 68 AUDIO
    TITLE "LR_black_phrase_E_06_068"
    INDEX 01 01:26:41
  TRACK 69 AUDIO
    TITLE "LR_black_phrase_E_06_069"
    INDEX 01 01:27:49
  TRACK 70 AUDIO
    TITLE "LR_black_phrase_E_06_070"
    INDEX 01 01:27:72
  TRACK 71 AUDIO
    TITLE "LR_black_phrase_E_06_071"
    INDEX 01 01:30:35
  TRACK 72 AUDIO
    TITLE "LR_black_phrase_E_06_072"
    INDEX 01 01:31:07
  TRACK 73 AUDIO
    TITLE "LR_black_phrase_E_06_073"
    INDEX 01 01:33:45
  TRACK 74 AUDIO
    TITLE "LR_black_phrase_E_06_074"
    INDEX 01 01:34:41
  TRACK 75 AUDIO
    TITLE "LR_black_phrase_E_06_075"
    INDEX 01 01:35:46
  TRACK 76 AUDIO
    TITLE "LR_black_phrase_E_06_076"
    INDEX 01 01:35:68
  TRACK 77 AUDIO
    TITLE "LR_black_phrase_E_06_077"
    INDEX 01 01:38:60
  TRACK 78 AUDIO
    TITLE "LR_black_phrase_E_06_078"
    INDEX 01 01:39:30
  TRACK 79 AUDIO
    TITLE "LR_black_phrase_E_06_079"
    INDEX 01 01:42:23
  TRACK 80 AUDIO
    TITLE "LR_black_phrase_E_06_080"
    INDEX 01 01:43:16
  TRACK 81 AUDIO
    TITLE "LR_black_phrase_E_06_081"
    INDEX 01 01:44:31
  TRACK 82 AUDIO
    TITLE "LR_black_phrase_E_06_082"
    INDEX 01 01:44:53
  TRACK 83 AUDIO
    TITLE "LR_black_phrase_E_06_083"
    INDEX 01 01:47:22
  TRACK 84 AUDIO
    TITLE "LR_black_phrase_E_06_084"
    INDEX 01 01:47:65
  TRACK 85 AUDIO
    TITLE "LR_black_phrase_E_06_085"
    INDEX 01 01:50:34
  TRACK 86 AUDIO
    TITLE "LR_black_phrase_E_06_086"
    INDEX 01 01:51:27
  TRACK 87 AUDIO
    TITLE "LR_black_phrase_E_06_087"
    INDEX 01 01:52:45
  TRACK 88 AUDIO
    TITLE "LR_black_phrase_E_06_088"
    INDEX 01 01:52:66
  TRACK 89 AUDIO
    TITLE "LR_black_phrase_E_06_089"
    INDEX 01 01:54:45
  TRACK 90 AUDIO
    TITLE "LR_black_phrase_E_06_090"
    INDEX 01 01:55:16
  TRACK 91 AUDIO
    TITLE "LR_black_phrase_E_06_091"
    INDEX 01 01:56:72
  TRACK 92 AUDIO
    TITLE "LR_black_phrase_E_06_092"
    INDEX 01 01:57:65
  TRACK 93 AUDIO
    TITLE "LR_black_phrase_E_06_093"
    INDEX 01 01:59:04
  TRACK 94 AUDIO
    TITLE "LR_black_phrase_E_06_094"
    INDEX 01 01:59:25
  TRACK 95 AUDIO
    TITLE "LR_black_phrase_E_06_095"
    INDEX 01 02:01:38
  TRACK 96 AUDIO
    TITLE "LR_black_phrase_E_06_096"
    INDEX 01 02:02:08
  TRACK 97 AUDIO
    TITLE "LR_black_phrase_E_06_097"
    INDEX 01 02:04:20
  TRACK 98 AUDIO
    TITLE "LR_black_phrase_E_06_098"
    INDEX 01 02:05:14
  TRACK 99 AUDIO
    TITLE "LR_black_phrase_E_06_099"
    INDEX 01 02:06:21
  TRACK 100 AUDIO
    TITLE "LR_black_phrase_E_06_100"
    INDEX 01 02:06:41
  TRACK 101 AUDIO
    TITLE "LR_black_phrase_E_06_101"
    INDEX 01 02:08:26
  TRACK 102 AUDIO
    TITLE "LR_black_phrase_E_06_102"
    INDEX 01 02:08:73
  TRACK 103 AUDIO
    TITLE "LR_black_phrase_E_06_103"
    INDEX 01 02:10:60
  TRACK 104 AUDIO
    TITLE "LR_black_phrase_E_06_104"
    INDEX 01 02:11:56
  TRACK 105 AUDIO
    TITLE "LR_black_phrase_E_06_105"
    INDEX 01 02:12:69
  TRACK 106 AUDIO
    TITLE "LR_black_phrase_E_06_106"
    INDEX 01 02:13:11
  TRACK 107 AUDIO
    TITLE "LR_black_phrase_E_06_107"
    INDEX 01 02:15:67
  TRACK 108 AUDIO
    TITLE "LR_black_phrase_E_06_108"
    INDEX 01 02:16:37
  TRACK 109 AUDIO
    TITLE "LR_black_phrase_E_06_109"
    INDEX 01 02:19:18
  TRACK 110 AUDIO
    TITLE "LR_black_phrase_E_06_110"
    INDEX 01 02:20:12
  TRACK 111 AUDIO
    TITLE "LR_black_phrase_E_06_111"
    INDEX 01 02:21:27
  TRACK 112 AUDIO
    TITLE "LR_black_phrase_E_06_112"
    INDEX 01 02:21:48
  TRACK 113 AUDIO
    TITLE "LR_black_phrase_E_06_113"
    INDEX 01 02:23:53
  TRACK 114 AUDIO
    TITLE "LR_black_phrase_E_06_114"
    INDEX 01 02:24:25
  TRACK 115 AUDIO
    TITLE "LR_black_phrase_E_06_115"
    INDEX 01 02:26:32
  TRACK 116 AUDIO
    TITLE "LR_black_phrase_E_06_116"
    INDEX 01 02:27:27
  TRACK 117 AUDIO
    TITLE "LR_black_phrase_E_06_117"
    INDEX 01 02:28:52
  TRACK 118 AUDIO
    TITLE "LR_black_phrase_E_06_118"
    INDEX 01 02:28:72
  TRACK 119 AUDIO
    TITLE "LR_black_phrase_E_06_119"
    INDEX 01 02:30:59
  TRACK 120 AUDIO
    TITLE "LR_black_phrase_E_06_120"
    INDEX 01 02:31:33
  TRACK 121 AUDIO
    TITLE "LR_black_phrase_E_06_121"
    INDEX 01 02:33:20
  TRACK 122 AUDIO
    TITLE "LR_black_phrase_E_06_122"
    INDEX 01 02:34:21
  TRACK 123 AUDIO
    TITLE "LR_black_phrase_E_06_123"
    INDEX 01 02:35:42
  TRACK 124 AUDIO
    TITLE "LR_black_phrase_E_06_124"
    INDEX 01 02:35:72
  TRACK 125 AUDIO
    TITLE "LR_black_phrase_E_06_125"
    INDEX 01 02:38:56
  TRACK 126 AUDIO
    TITLE "LR_black_phrase_E_06_126"
    INDEX 01 02:39:36
  TRACK 127 AUDIO
    TITLE "LR_black_phrase_E_06_127"
    INDEX 01 02:42:23
  TRACK 128 AUDIO
    TITLE "LR_black_phrase_E_06_128"
    INDEX 01 02:43:26
  TRACK 129 AUDIO
    TITLE "LR_black_phrase_E_06_129"
    INDEX 01 02:44:36
  TRACK 130 AUDIO
    TITLE "LR_black_phrase_E_06_130"
    INDEX 01 02:44:67
  TRACK 131 AUDIO
    TITLE "LR_black_phrase_E_06_131"
    INDEX 01 02:47:20
  TRACK 132 AUDIO
    TITLE "LR_black_phrase_E_06_132"
    INDEX 01 02:47:75
  TRACK 133 AUDIO
    TITLE "LR_black_phrase_E_06_133"
    INDEX 01 02:50:26
  TRACK 134 AUDIO
    TITLE "LR_black_phrase_E_06_134"
    INDEX 01 02:51:32
  TRACK 135 AUDIO
    TITLE "LR_black_phrase_E_06_135"
    INDEX 01 02:52:57
  TRACK 136 AUDIO
    TITLE "LR_black_phrase_E_06_136"
    INDEX 01 02:53:11
  TRACK 137 AUDIO
    TITLE "LR_black_phrase_E_06_137"
    INDEX 01 02:55:24
  TRACK 138 AUDIO
    TITLE "LR_black_phrase_E_06_138"
    INDEX 01 02:56:05
  TRACK 139 AUDIO
    TITLE "LR_black_phrase_E_06_139"
    INDEX 01 02:58:20
  TRACK 140 AUDIO
    TITLE "LR_black_phrase_E_06_140"
    INDEX 01 02:59:25
  TRACK 141 AUDIO
    TITLE "LR_black_phrase_E_06_141"
    INDEX 01 03:00:36
  TRACK 142 AUDIO
    TITLE "LR_black_phrase_E_06_142"
    INDEX 01 03:00:64
  TRACK 143 AUDIO
    TITLE "LR_black_phrase_E_06_143"
    INDEX 01 03:02:67
  TRACK 144 AUDIO
    TITLE "LR_black_phrase_E_06_144"
    INDEX 01 03:03:49
  TRACK 145 AUDIO
    TITLE "LR_black_phrase_E_06_145"
    INDEX 01 03:05:49
  TRACK 146 AUDIO
    TITLE "LR_black_phrase_E_06_146"
    INDEX 01 03:06:55
  TRACK 147 AUDIO
    TITLE "LR_black_phrase_E_06_147"
    INDEX 01 03:08:07
  TRACK 148 AUDIO
    TITLE "LR_black_phrase_E_06_148"
    INDEX 01 03:08:38
  TRACK 149 AUDIO
    TITLE "LR_black_phrase_E_06_149"
    INDEX 01 03:11:09
  TRACK 150 AUDIO
    TITLE "LR_black_phrase_E_06_150"
    INDEX 01 03:11:62
  TRACK 151 AUDIO
    TITLE "LR_black_phrase_E_06_151"
    INDEX 01 03:14:35
  TRACK 152 AUDIO
    TITLE "LR_black_phrase_E_06_152"
    INDEX 01 03:15:38
  TRACK 153 AUDIO
    TITLE "LR_black_phrase_E_06_153"
    INDEX 01 03:16:75
  TRACK 154 AUDIO
    TITLE "LR_black_phrase_E_06_154"
    INDEX 01 03:17:29
  TRACK 155 AUDIO
    TITLE "LR_black_phrase_E_06_155"
    INDEX 01 03:20:33
  TRACK 156 AUDIO
    TITLE "LR_black_phrase_E_06_156"
    INDEX 01 03:21:11
  TRACK 157 AUDIO
    TITLE "LR_black_phrase_E_06_157"
    INDEX 01 03:24:15
  TRACK 158 AUDIO
    TITLE "LR_black_phrase_E_06_158"
    INDEX 01 03:25:21
  TRACK 159 AUDIO
    TITLE "LR_black_phrase_E_06_159"
    INDEX 01 03:26:44
  TRACK 160 AUDIO
    TITLE "LR_black_phrase_E_06_160"
    INDEX 01 03:26:75
  TRACK 161 AUDIO
    TITLE "LR_black_phrase_E_06_161"
    INDEX 01 03:29:46
  TRACK 162 AUDIO
    TITLE "LR_black_phrase_E_06_162"
    INDEX 01 03:30:26
  TRACK 163 AUDIO
    TITLE "LR_black_phrase_E_06_163"
    INDEX 01 03:32:72
  TRACK 164 AUDIO
    TITLE "LR_black_phrase_E_06_164"
    INDEX 01 03:33:75
  TRACK 165 AUDIO
    TITLE "LR_black_phrase_E_06_165"
    INDEX 01 03:35:19
  TRACK 166 AUDIO
    TITLE "LR_black_phrase_E_06_166"
    INDEX 01 03:35:45
  TRACK 167 AUDIO
    TITLE "LR_black_phrase_E_06_167"
    INDEX 01 03:37:45
  TRACK 168 AUDIO
    TITLE "LR_black_phrase_E_06_168"
    INDEX 01 03:38:23
  TRACK 169 AUDIO
    TITLE "LR_black_phrase_E_06_169"
    INDEX 01 03:40:20
  TRACK 170 AUDIO
    TITLE "LR_black_phrase_E_06_170"
    INDEX 01 03:41:26
  TRACK 171 AUDIO
    TITLE "LR_black_phrase_E_06_171"
    INDEX 01 03:42:43
  TRACK 172 AUDIO
    TITLE "LR_black_phrase_E_06_172"
    INDEX 01 03:42:70
  TRACK 173 AUDIO
    TITLE "LR_black_phrase_E_06_173"
    INDEX 01 03:45:22
  TRACK 174 AUDIO
    TITLE "LR_black_phrase_E_06_174"
    INDEX 01 03:46:01
  TRACK 175 AUDIO
    TITLE "LR_black_phrase_E_06_175"
    INDEX 01 03:48:30
  TRACK 176 AUDIO
    TITLE "LR_black_phrase_E_06_176"
    INDEX 01 03:49:35
  TRACK 177 AUDIO
    TITLE "LR_black_phrase_E_06_177"
    INDEX 01 03:50:54
  TRACK 178 AUDIO
    TITLE "LR_black_phrase_E_06_178"
    INDEX 01 03:51:06
  TRACK 179 AUDIO
    TITLE "LR_black_phrase_E_06_179"
    INDEX 01 03:53:54
  TRACK 180 AUDIO
    TITLE "LR_black_phrase_E_06_180"
    INDEX 01 03:54:36
  TRACK 181 AUDIO
    TITLE "LR_black_phrase_E_06_181"
    INDEX 01 03:57:07
  TRACK 182 AUDIO
    TITLE "LR_black_phrase_E_06_182"
    INDEX 01 03:58:07
  TRACK 183 AUDIO
    TITLE "LR_black_phrase_E_06_183"
    INDEX 01 03:59:28
  TRACK 184 AUDIO
    TITLE "LR_black_phrase_E_06_184"
    INDEX 01 03:59:49
  TRACK 185 AUDIO
    TITLE "LR_black_phrase_E_06_185"
    INDEX 01 04:02:04
  TRACK 186 AUDIO
    TITLE "LR_black_phrase_E_06_186"
    INDEX 01 04:02:57
  TRACK 187 AUDIO
    TITLE "LR_black_phrase_E_06_187"
    INDEX 01 04:05:09
  TRACK 188 AUDIO
    TITLE "LR_black_phrase_E_06_188"
    INDEX 01 04:06:10
  TRACK 189 AUDIO
    TITLE "LR_black_phrase_E_06_189"
    INDEX 01 04:07:29
  TRACK 190 AUDIO
    TITLE "LR_black_phrase_E_06_190"
    INDEX 01 04:07:51
  TRACK 191 AUDIO
    TITLE "LR_black_phrase_E_06_191"
    INDEX 01 04:09:51
  TRACK 192 AUDIO
    TITLE "LR_black_phrase_E_06_192"
    INDEX 01 04:10:21
  TRACK 193 AUDIO
    TITLE "LR_black_phrase_E_06_193"
    INDEX 01 04:12:24
  TRACK 194 AUDIO
    TITLE "LR_black_phrase_E_06_194"
    INDEX 01 04:13:20
  TRACK 195 AUDIO
    TITLE "LR_black_phrase_E_06_195"
    INDEX 01 04:14:33
  TRACK 196 AUDIO
    TITLE "LR_black_phrase_E_06_196"
    INDEX 01 04:14:51
  TRACK 197 AUDIO
    TITLE "LR_black_phrase_E_06_197"
    INDEX 01 04:17:29
  TRACK 198 AUDIO
    TITLE "LR_black_phrase_E_06_198"
    INDEX 01 04:17:74
  TRACK 199 AUDIO
    TITLE "LR_black_phrase_E_06_199"
    INDEX 01 04:20:51
  TRACK 200 AUDIO
    TITLE "LR_black_phrase_E_06_200"
    INDEX 01 04:21:47
  TRACK 201 AUDIO
    TITLE "LR_black_phrase_E_06_201"
    INDEX 01 04:22:52
  TRACK 202 AUDIO
    TITLE "LR_black_phrase_E_06_202"
    INDEX 01 04:22:72
  TRACK 203 AUDIO
    TITLE "LR_black_phrase_E_06_203"
    INDEX 01 04:25:07
  TRACK 204 AUDIO
    TITLE "LR_black_phrase_E_06_204"
    INDEX 01 04:25:52
  TRACK 205 AUDIO
    TITLE "LR_black_phrase_E_06_205"
    INDEX 01 04:27:61
  TRACK 206 AUDIO
    TITLE "LR_black_phrase_E_06_206"
    INDEX 01 04:28:57
  TRACK 207 AUDIO
    TITLE "LR_black_phrase_E_06_207"
    INDEX 01 04:30:06
  TRACK 208 AUDIO
    TITLE "LR_black_phrase_E_06_208"
    INDEX 01 04:30:28
  TRACK 209 AUDIO
    TITLE "LR_black_phrase_E_06_209"
    INDEX 01 04:32:56
  TRACK 210 AUDIO
    TITLE "LR_black_phrase_E_06_210"
    INDEX 01 04:33:26
  TRACK 211 AUDIO
    TITLE "LR_black_phrase_E_06_211"
    INDEX 01 04:35:57
  TRACK 212 AUDIO
    TITLE "LR_black_phrase_E_06_212"
    INDEX 01 04:36:52
  TRACK 213 AUDIO
    TITLE "LR_black_phrase_E_06_213"
    INDEX 01 04:37:54
  TRACK 214 AUDIO
    TITLE "LR_black_phrase_E_06_214"
    INDEX 01 04:37:71
  TRACK 215 AUDIO
    TITLE "LR_black_phrase_E_06_215"
    INDEX 01 04:39:54
  TRACK 216 AUDIO
    TITLE "LR_black_phrase_E_06_216"
    INDEX 01 04:40:28
  TRACK 217 AUDIO
    TITLE "LR_black_phrase_E_06_217"
    INDEX 01 04:42:10
  TRACK 218 AUDIO
    TITLE "LR_black_phrase_E_06_218"
    INDEX 01 04:43:07
  TRACK 219 AUDIO
    TITLE "LR_black_phrase_E_06_219"
    INDEX 01 04:44:14
  TRACK 220 AUDIO
    TITLE "LR_black_phrase_E_06_220"
    INDEX 01 04:44:32
  TRACK 221 AUDIO
    TITLE "LR_black_phrase_E_06_221"
    INDEX 01 04:47:05
  TRACK 222 AUDIO
    TITLE "LR_black_phrase_E_06_222"
    INDEX 01 04:47:50
  TRACK 223 AUDIO
    TITLE "LR_black_phrase_E_06_223"
    INDEX 01 04:50:21
  TRACK 224 AUDIO
    TITLE "LR_black_phrase_E_06_224"
    INDEX 01 04:51:18
  TRACK 225 AUDIO
    TITLE "LR_black_phrase_E_06_225"
    INDEX 01 04:52:43
  TRACK 226 AUDIO
    TITLE "LR_black_phrase_E_06_226"
    INDEX 01 04:52:59
  TRACK 227 AUDIO
    TITLE "LR_black_phrase_E_06_227"
    INDEX 01 04:54:50
  TRACK 228 AUDIO
    TITLE "LR_black_phrase_E_06_228"
    INDEX 01 04:55:20
  TRACK 229 AUDIO
    TITLE "LR_black_phrase_E_06_229"
    INDEX 01 04:57:09
  TRACK 230 AUDIO
    TITLE "LR_black_phrase_E_06_230"
    INDEX 01 04:58:05
  TRACK 231 AUDIO
    TITLE "LR_black_phrase_E_06_231"
    INDEX 01 04:59:14
  TRACK 232 AUDIO
    TITLE "LR_black_phrase_E_06_232"
    INDEX 01 04:59:36
  TRACK 233 AUDIO
    TITLE "LR_black_phrase_E_06_233"
    INDEX 01 05:01:15
  TRACK 234 AUDIO
    TITLE "LR_black_phrase_E_06_234"
    INDEX 01 05:01:60
  TRACK 235 AUDIO
    TITLE "LR_black_phrase_E_06_235"
    INDEX 01 05:03:41
  TRACK 236 AUDIO
    TITLE "LR_black_phrase_E_06_236"
    INDEX 01 05:04:35
  TRACK 237 AUDIO
    TITLE "LR_black_phrase_E_06_237"
    INDEX 01 05:05:62
  TRACK 238 AUDIO
    TITLE "LR_black_phrase_E_06_238"
    INDEX 01 05:06:10
  TRACK 239 AUDIO
    TITLE "LR_black_phrase_E_06_239"
    INDEX 01 05:08:48
  TRACK 240 AUDIO
    TITLE "LR_black_phrase_E_06_240"
    INDEX 01 05:09:20
  TRACK 241 AUDIO
    TITLE "LR_black_phrase_E_06_241"
    INDEX 01 05:11:58
  TRACK 242 AUDIO
    TITLE "LR_black_phrase_E_06_242"
    INDEX 01 05:12:60
  TRACK 243 AUDIO
    TITLE "LR_black_phrase_E_06_243"
    INDEX 01 05:13:73
  TRACK 244 AUDIO
    TITLE "LR_black_phrase_E_06_244"
    INDEX 01 05:14:27
  TRACK 245 AUDIO
    TITLE "LR_black_phrase_E_06_245"
    INDEX 01 05:17:12
  TRACK 246 AUDIO
    TITLE "LR_black_phrase_E_06_246"
    INDEX 01 05:17:67
  TRACK 247 AUDIO
    TITLE "LR_black_phrase_E_06_247"
    INDEX 01 05:20:51
  TRACK 248 AUDIO
    TITLE "LR_black_phrase_E_06_248"
    INDEX 01 05:21:57
  TRACK 249 AUDIO
    TITLE "LR_black_phrase_E_06_249"
    INDEX 01 05:23:01
  TRACK 250 AUDIO
    TITLE "LR_black_phrase_E_06_250"
    INDEX 01 05:23:30
  TRACK 251 AUDIO
    TITLE "LR_black_phrase_E_06_251"
    INDEX 01 05:25:57
  TRACK 252 AUDIO
    TITLE "LR_black_phrase_E_06_252"
    INDEX 01 05:26:36
  TRACK 253 AUDIO
    TITLE "LR_black_phrase_E_06_253"
    INDEX 01 05:28:65
  TRACK 254 AUDIO
    TITLE "LR_black_phrase_E_06_254"
    INDEX 01 05:29:70
  TRACK 255 AUDIO
    TITLE "LR_black_phrase_E_06_255"
    INDEX 01 05:31:32
  TRACK 256 AUDIO
    TITLE "LR_black_phrase_E_06_256"
    INDEX 01 05:31:59
  TRACK 257 AUDIO
    TITLE "LR_black_phrase_E_06_257"
    INDEX 01 05:34:61
  TRACK 258 AUDIO
    TITLE "LR_black_phrase_E_06_258"
    INDEX 01 05:35:39
  TRACK 259 AUDIO
    TITLE "LR_black_phrase_E_06_259"
    INDEX 01 05:38:42
  TRACK 260 AUDIO
    TITLE "LR_black_phrase_E_06_260"
    INDEX 01 05:39:45
  TRACK 261 AUDIO
    TITLE "LR_black_phrase_E_06_261"
    INDEX 01 05:40:66
  TRACK 262 AUDIO
    TITLE "LR_black_phrase_E_06_262"
    INDEX 01 05:41:22
  TRACK 263 AUDIO
    TITLE "LR_black_phrase_E_06_263"
    INDEX 01 05:43:17
  TRACK 264 AUDIO
    TITLE "LR_black_phrase_E_06_264"
    INDEX 01 05:43:72
  TRACK 265 AUDIO
    TITLE "LR_black_phrase_E_06_265"
    INDEX 01 05:45:67
  TRACK 266 AUDIO
    TITLE "LR_black_phrase_E_06_266"
    INDEX 01 05:46:70
  TRACK 267 AUDIO
    TITLE "LR_black_phrase_E_06_267"
    INDEX 01 05:48:09
  TRACK 268 AUDIO
    TITLE "LR_black_phrase_E_06_268"
    INDEX 01 05:48:40
  TRACK 269 AUDIO
    TITLE "LR_black_phrase_E_06_269"
    INDEX 01 05:50:55
  TRACK 270 AUDIO
    TITLE "LR_black_phrase_E_06_270"
    INDEX 01 05:51:34
  TRACK 271 AUDIO
    TITLE "LR_black_phrase_E_06_271"
    INDEX 01 05:53:49
  TRACK 272 AUDIO
    TITLE "LR_black_phrase_E_06_272"
    INDEX 01 05:54:54
  TRACK 273 AUDIO
    TITLE "LR_black_phrase_E_06_273"
    INDEX 01 05:55:73
  TRACK 274 AUDIO
    TITLE "LR_black_phrase_E_06_274"
    INDEX 01 05:56:28
  TRACK 275 AUDIO
    TITLE "LR_black_phrase_E_06_275"
    INDEX 01 05:58:17
  TRACK 276 AUDIO
    TITLE "LR_black_phrase_E_06_276"
    INDEX 01 05:58:70
  TRACK 277 AUDIO
    TITLE "LR_black_phrase_E_06_277"
    INDEX 01 06:00:59
  TRACK 278 AUDIO
    TITLE "LR_black_phrase_E_06_278"
    INDEX 01 06:01:62
  TRACK 279 AUDIO
    TITLE "LR_black_phrase_E_06_279"
    INDEX 01 06:02:67
  TRACK 280 AUDIO
    TITLE "LR_black_phrase_E_06_280"
    INDEX 01 06:03:20
  TRACK 281 AUDIO
    TITLE "LR_black_phrase_E_06_281"
    INDEX 01 06:05:70
  TRACK 282 AUDIO
    TITLE "LR_black_phrase_E_06_282"
    INDEX 01 06:06:50
  TRACK 283 AUDIO
    TITLE "LR_black_phrase_E_06_283"
    INDEX 01 06:09:26
  TRACK 284 AUDIO
    TITLE "LR_black_phrase_E_06_284"
    INDEX 01 06:10:30
  TRACK 285 AUDIO
    TITLE "LR_black_phrase_E_06_285"
    INDEX 01 06:11:29
  TRACK 286 AUDIO
    TITLE "LR_black_phrase_E_06_286"
    INDEX 01 06:11:61
  TRACK 287 AUDIO
    TITLE "LR_black_phrase_E_06_287"
    INDEX 01 06:13:52
  TRACK 288 AUDIO
    TITLE "LR_black_phrase_E_06_288"
    INDEX 01 06:14:31
  TRACK 289 AUDIO
    TITLE "LR_black_phrase_E_06_289"
    INDEX 01 06:16:24
  TRACK 290 AUDIO
    TITLE "LR_black_phrase_E_06_290"
    INDEX 01 06:17:30
  TRACK 291 AUDIO
    TITLE "LR_black_phrase_E_06_291"
    INDEX 01 06:18:43
  TRACK 292 AUDIO
    TITLE "LR_black_phrase_E_06_292"
    INDEX 01 06:18:72
  TRACK 293 AUDIO
    TITLE "LR_black_phrase_E_06_293"
    INDEX 01 06:21:43
  TRACK 294 AUDIO
    TITLE "LR_black_phrase_E_06_294"
    INDEX 01 06:22:23
  TRACK 295 AUDIO
    TITLE "LR_black_phrase_E_06_295"
    INDEX 01 06:24:67
  TRACK 296 AUDIO
    TITLE "LR_black_phrase_E_06_296"
    INDEX 01 06:25:72
  TRACK 297 AUDIO
    TITLE "LR_black_phrase_E_06_297"
    INDEX 01 06:27:15
  TRACK 298 AUDIO
    TITLE "LR_black_phrase_E_06_298"
    INDEX 01 06:27:44
  TRACK 299 AUDIO
    TITLE "LR_black_phrase_E_06_299"
    INDEX 01 06:29:27
  TRACK 300 AUDIO
    TITLE "LR_black_phrase_E_06_300"
    INDEX 01 06:30:07
  TRACK 301 AUDIO
    TITLE "LR_black_phrase_E_06_301"
    INDEX 01 06:31:67
  TRACK 302 AUDIO
    TITLE "LR_black_phrase_E_06_302"
    INDEX 01 06:32:65
  TRACK 303 AUDIO
    TITLE "LR_black_phrase_E_06_303"
    INDEX 01 06:34:01
  TRACK 304 AUDIO
    TITLE "LR_black_phrase_E_06_304"
    INDEX 01 06:34:22
  TRACK 305 AUDIO
    TITLE "LR_black_phrase_E_06_305"
    INDEX 01 06:36:13
  TRACK 306 AUDIO
    TITLE "LR_black_phrase_E_06_306"
    INDEX 01 06:36:61
  TRACK 307 AUDIO
    TITLE "LR_black_phrase_E_06_307"
    INDEX 01 06:38:50
  TRACK 308 AUDIO
    TITLE "LR_black_phrase_E_06_308"
    INDEX 01 06:39:45
  TRACK 309 AUDIO
    TITLE "LR_black_phrase_E_06_309"
    INDEX 01 06:40:45
  TRACK 310 AUDIO
    TITLE "LR_black_phrase_E_06_310"
    INDEX 01 06:40:64
  TRACK 311 AUDIO
    TITLE "LR_black_phrase_E_06_311"
    INDEX 01 06:42:59
  TRACK 312 AUDIO
    TITLE "LR_black_phrase_E_06_312"
    INDEX 01 06:43:29
  TRACK 313 AUDIO
    TITLE "LR_black_phrase_E_06_313"
    INDEX 01 06:45:22
  TRACK 314 AUDIO
    TITLE "LR_black_phrase_E_06_314"
    INDEX 01 06:46:20
  TRACK 315 AUDIO
    TITLE "LR_black_phrase_E_06_315"
    INDEX 01 06:47:29
  TRACK 316 AUDIO
    TITLE "LR_black_phrase_E_06_316"
    INDEX 01 06:47:49
  TRACK 317 AUDIO
    TITLE "LR_black_phrase_E_06_317"
    INDEX 01 06:50:23
  TRACK 318 AUDIO
    TITLE "LR_black_phrase_E_06_318"
    INDEX 01 06:50:70
  TRACK 319 AUDIO
    TITLE "LR_black_phrase_E_06_319"
    INDEX 01 06:53:45
  TRACK 320 AUDIO
    TITLE "LR_black_phrase_E_06_320"
    INDEX 01 06:54:43
  TRACK 321 AUDIO
    TITLE "LR_black_phrase_E_06_321"
    INDEX 01 06:55:68
  TRACK 322 AUDIO
    TITLE "LR_black_phrase_E_06_322"
    INDEX 01 06:56:16
  TRACK 323 AUDIO
    TITLE "LR_black_phrase_E_06_323"
    INDEX 01 06:58:37
  TRACK 324 AUDIO
    TITLE "LR_black_phrase_E_06_324"
    INDEX 01 06:59:13
  TRACK 325 AUDIO
    TITLE "LR_black_phrase_E_06_325"
    INDEX 01 07:01:31
  TRACK 326 AUDIO
    TITLE "LR_black_phrase_E_06_326"
    INDEX 01 07:02:32
  TRACK 327 AUDIO
    TITLE "LR_black_phrase_E_06_327"
    INDEX 01 07:03:30
  TRACK 328 AUDIO
    TITLE "LR_black_phrase_E_06_328"
    INDEX 01 07:03:57
  TRACK 329 AUDIO
    TITLE "LR_black_phrase_E_06_329"
    INDEX 01 07:05:48
  TRACK 330 AUDIO
    TITLE "LR_black_phrase_E_06_330"
    INDEX 01 07:06:22
  TRACK 331 AUDIO
    TITLE "LR_black_phrase_E_06_331"
    INDEX 01 07:08:12
  TRACK 332 AUDIO
    TITLE "LR_black_phrase_E_06_332"
    INDEX 01 07:09:07
  TRACK 333 AUDIO
    TITLE "LR_black_phrase_E_06_333"
    INDEX 01 07:10:22
  TRACK 334 AUDIO
    TITLE "LR_black_phrase_E_06_334"
    INDEX 01 07:10:46
  TRACK 335 AUDIO
    TITLE "LR_black_phrase_E_06_335"
    INDEX 01 07:13:07
  TRACK 336 AUDIO
    TITLE "LR_black_phrase_E_06_336"
    INDEX 01 07:13:52
  TRACK 337 AUDIO
    TITLE "LR_black_phrase_E_06_337"
    INDEX 01 07:16:17
  TRACK 338 AUDIO
    TITLE "LR_black_phrase_E_06_338"
    INDEX 01 07:17:12
  TRACK 339 AUDIO
    TITLE "LR_black_phrase_E_06_339"
    INDEX 01 07:18:10
  TRACK 340 AUDIO
    TITLE "LR_black_phrase_E_06_340"
    INDEX 01 07:18:33
  TRACK 341 AUDIO
    TITLE "LR_black_phrase_E_06_341"
    INDEX 01 07:20:15
  TRACK 342 AUDIO
    TITLE "LR_black_phrase_E_06_342"
    INDEX 01 07:20:62
  TRACK 343 AUDIO
    TITLE "LR_black_phrase_E_06_343"
    INDEX 01 07:22:39
  TRACK 344 AUDIO
    TITLE "LR_black_phrase_E_06_344"
    INDEX 01 07:23:33
  TRACK 345 AUDIO
    TITLE "LR_black_phrase_E_06_345"
    INDEX 01 07:24:38
  TRACK 346 AUDIO
    TITLE "LR_black_phrase_E_06_346"
    INDEX 01 07:24:67
  TRACK 347 AUDIO
    TITLE "LR_black_phrase_E_06_347"
    INDEX 01 07:26:37
  TRACK 348 AUDIO
    TITLE "LR_black_phrase_E_06_348"
    INDEX 01 07:27:13
  TRACK 349 AUDIO
    TITLE "LR_black_phrase_E_06_349"
    INDEX 01 07:28:57
  TRACK 350 AUDIO
    TITLE "LR_black_phrase_E_06_350"
    INDEX 01 07:29:53
  TRACK 351 AUDIO
    TITLE "LR_black_phrase_E_06_351"
    INDEX 01 07:30:68
  TRACK 352 AUDIO
    TITLE "LR_black_phrase_E_06_352"
    INDEX 01 07:31:15
  TRACK 353 AUDIO
    TITLE "LR_black_phrase_E_06_353"
    INDEX 01 07:33:58
  TRACK 354 AUDIO
    TITLE "LR_black_phrase_E_06_354"
    INDEX 01 07:34:32
  TRACK 355 AUDIO
    TITLE "LR_black_phrase_E_06_355"
    INDEX 01 07:37:01
  TRACK 356 AUDIO
    TITLE "LR_black_phrase_E_06_356"
    INDEX 01 07:38:01
  TRACK 357 AUDIO
    TITLE "LR_black_phrase_E_06_357"
    INDEX 01 07:39:10
  TRACK 358 AUDIO
    TITLE "LR_black_phrase_E_06_358"
    INDEX 01 07:39:30
  TRACK 359 AUDIO
    TITLE "LR_black_phrase_E_06_359"
    INDEX 01 07:41:66
  TRACK 360 AUDIO
    TITLE "LR_black_phrase_E_06_360"
    INDEX 01 07:42:34
  TRACK 361 AUDIO
    TITLE "LR_black_phrase_E_06_361"
    INDEX 01 07:44:70
  TRACK 362 AUDIO
    TITLE "LR_black_phrase_E_06_362"
    INDEX 01 07:45:70
  TRACK 363 AUDIO
    TITLE "LR_black_phrase_E_06_363"
    INDEX 01 07:46:73
  TRACK 364 AUDIO
    TITLE "LR_black_phrase_E_06_364"
    INDEX 01 07:47:29
  TRACK 365 AUDIO
    TITLE "LR_black_phrase_E_06_365"
    INDEX 01 07:49:26
  TRACK 366 AUDIO
    TITLE "LR_black_phrase_E_06_366"
    INDEX 01 07:50:04
  TRACK 367 AUDIO
    TITLE "LR_black_phrase_E_06_367"
    INDEX 01 07:52:01
  TRACK 368 AUDIO
    TITLE "LR_black_phrase_E_06_368"
    INDEX 01 07:53:06
  TRACK 369 AUDIO
    TITLE "LR_black_phrase_E_06_369"
    INDEX 01 07:54:29
  TRACK 370 AUDIO
    TITLE "LR_black_phrase_E_06_370"
    INDEX 01 07:54:59
  TRACK 371 AUDIO
    TITLE "LR_black_phrase_E_06_371"
    INDEX 01 07:57:18
  TRACK 372 AUDIO
    TITLE "LR_black_phrase_E_06_372"
    INDEX 01 07:57:73
  TRACK 373 AUDIO
    TITLE "LR_black_phrase_E_06_373"
    INDEX 01 08:00:30
  TRACK 374 AUDIO
    TITLE "LR_black_phrase_E_06_374"
    INDEX 01 08:01:35
  TRACK 375 AUDIO
    TITLE "LR_black_phrase_E_06_375"
    INDEX 01 08:02:43
  TRACK 376 AUDIO
    TITLE "LR_black_phrase_E_06_376"
    INDEX 01 08:02:70
  TRACK 377 AUDIO
    TITLE "LR_black_phrase_E_06_377"
    INDEX 01 08:04:55
  TRACK 378 AUDIO
    TITLE "LR_black_phrase_E_06_378"
    INDEX 01 08:05:35
  TRACK 379 AUDIO
    TITLE "LR_black_phrase_E_06_379"
    INDEX 01 08:07:20
  TRACK 380 AUDIO
    TITLE "LR_black_phrase_E_06_380"
    INDEX 01 08:08:25
  TRACK 381 AUDIO
    TITLE "LR_black_phrase_E_06_381"
    INDEX 01 08:09:39
  TRACK 382 AUDIO
    TITLE "LR_black_phrase_E_06_382"
    INDEX 01 08:09:68
  TRACK 383 AUDIO
    TITLE "LR_black_phrase_E_06_383"
    INDEX 01 08:12:06
  TRACK 384 AUDIO
    TITLE "LR_black_phrase_E_06_384"
    INDEX 01 08:12:57
  TRACK 385 AUDIO
    TITLE "LR_black_phrase_E_06_385"
    INDEX 01 08:14:69
  TRACK 386 AUDIO
    TITLE "LR_black_phrase_E_06_386"
    INDEX 01 08:15:73
  TRACK 387 AUDIO
    TITLE "LR_black_phrase_E_06_387"
    INDEX 01 08:17:19
  TRACK 388 AUDIO
    TITLE "LR_black_phrase_E_06_388"
    INDEX 01 08:17:48
  TRACK 389 AUDIO
    TITLE "LR_black_phrase_E_06_389"
    INDEX 01 08:19:49
  TRACK 390 AUDIO
    TITLE "LR_black_phrase_E_06_390"
    INDEX 01 08:20:27
  TRACK 391 AUDIO
    TITLE "LR_black_phrase_E_06_391"
    INDEX 01 08:22:28
  TRACK 392 AUDIO
    TITLE "LR_black_phrase_E_06_392"
    INDEX 01 08:23:33
  TRACK 393 AUDIO
    TITLE "LR_black_phrase_E_06_393"
    INDEX 01 08:24:44
  TRACK 394 AUDIO
    TITLE "LR_black_phrase_E_06_394"
    INDEX 01 08:24:75
  TRACK 395 AUDIO
    TITLE "LR_black_phrase_E_06_395"
    INDEX 01 08:26:66
  TRACK 396 AUDIO
    TITLE "LR_black_phrase_E_06_396"
    INDEX 01 08:27:44
  TRACK 397 AUDIO
    TITLE "LR_black_phrase_E_06_397"
    INDEX 01 08:29:35
  TRACK 398 AUDIO
    TITLE "LR_black_phrase_E_06_398"
    INDEX 01 08:30:39
  TRACK 399 AUDIO
    TITLE "LR_black_phrase_E_06_399"
    INDEX 01 08:31:58
  TRACK 400 AUDIO
    TITLE "LR_black_phrase_E_06_400"
    INDEX 01 08:32:12
  TRACK 401 AUDIO
    TITLE "LR_black_phrase_E_06_401"
    INDEX 01 08:34:41
  TRACK 402 AUDIO
    TITLE "LR_black_phrase_E_06_402"
    INDEX 01 08:35:20
  TRACK 403 AUDIO
    TITLE "LR_black_phrase_E_06_403"
    INDEX 01 08:37:47
  TRACK 404 AUDIO
    TITLE "LR_black_phrase_E_06_404"
    INDEX 01 08:38:52
  TRACK 405 AUDIO
    TITLE "LR_black_phrase_E_06_405"
    INDEX 01 08:39:69
  TRACK 406 AUDIO
    TITLE "LR_black_phrase_E_06_406"
    INDEX 01 08:40:22
  TRACK 407 AUDIO
    TITLE "LR_black_phrase_E_06_407"
    INDEX 01 08:42:34
  TRACK 408 AUDIO
    TITLE "LR_black_phrase_E_06_408"
    INDEX 01 08:43:12
  TRACK 409 AUDIO
    TITLE "LR_black_phrase_E_06_409"
    INDEX 01 08:45:23
  TRACK 410 AUDIO
    TITLE "LR_black_phrase_E_06_410"
    INDEX 01 08:46:28
  TRACK 411 AUDIO
    TITLE "LR_black_phrase_E_06_411"
    INDEX 01 08:47:55
  TRACK 412 AUDIO
    TITLE "LR_black_phrase_E_06_412"
    INDEX 01 08:48:07
  TRACK 413 AUDIO
    TITLE "LR_black_phrase_E_06_413"
    INDEX 01 08:50:30
  TRACK 414 AUDIO
    TITLE "LR_black_phrase_E_06_414"
    INDEX 01 08:51:10
  TRACK 415 AUDIO
    TITLE "LR_black_phrase_E_06_415"
    INDEX 01 08:53:32
  TRACK 416 AUDIO
    TITLE "LR_black_phrase_E_06_416"
    INDEX 01 08:54:37
  TRACK 417 AUDIO
    TITLE "LR_black_phrase_E_06_417"
    INDEX 01 08:55:47
  TRACK 418 AUDIO
    TITLE "LR_black_phrase_E_06_418"
    INDEX 01 08:55:74
  TRACK 419 AUDIO
    TITLE "LR_black_phrase_E_06_419"
    INDEX 01 08:58:02
  TRACK 420 AUDIO
    TITLE "LR_black_phrase_E_06_420"
    INDEX 01 08:58:61
  TRACK 421 AUDIO
    TITLE "LR_black_phrase_E_06_421"
    INDEX 01 09:00:60
  TRACK 422 AUDIO
    TITLE "LR_black_phrase_E_06_422"
    INDEX 01 09:01:61
  TRACK 423 AUDIO
    TITLE "LR_black_phrase_E_06_423"
    INDEX 01 09:03:09
  TRACK 424 AUDIO
    TITLE "LR_black_phrase_E_06_424"
    INDEX 01 09:03:30
  TRACK 425 AUDIO
    TITLE "LR_black_phrase_E_06_425"
    INDEX 01 09:05:43
  TRACK 426 AUDIO
    TITLE "LR_black_phrase_E_06_426"
    INDEX 01 09:06:13
  TRACK 427 AUDIO
    TITLE "LR_black_phrase_E_06_427"
    INDEX 01 09:08:26
  TRACK 428 AUDIO
    TITLE "LR_black_phrase_E_06_428"
    INDEX 01 09:09:19
  TRACK 429 AUDIO
    TITLE "LR_black_phrase_E_06_429"
    INDEX 01 09:10:32
  TRACK 430 AUDIO
    TITLE "LR_black_phrase_E_06_430"
    INDEX 01 09:10:52
  TRACK 431 AUDIO
    TITLE "LR_black_phrase_E_06_431"
    INDEX 01 09:12:73
  TRACK 432 AUDIO
    TITLE "LR_black_phrase_E_06_432"
    INDEX 01 09:13:41
  TRACK 433 AUDIO
    TITLE "LR_black_phrase_E_06_433"
    INDEX 01 09:15:57
  TRACK 434 AUDIO
    TITLE "LR_black_phrase_E_06_434"
    INDEX 01 09:16:53
  TRACK 435 AUDIO
    TITLE "LR_black_phrase_E_06_435"
    INDEX 01 09:17:72
  TRACK 436 AUDIO
    TITLE "LR_black_phrase_E_06_436"
    INDEX 01 09:18:18
  TRACK 437 AUDIO
    TITLE "LR_black_phrase_E_06_437"
    INDEX 01 09:20:01
  TRACK 438 AUDIO
    TITLE "LR_black_phrase_E_06_438"
    INDEX 01 09:20:48
  TRACK 439 AUDIO
    TITLE "LR_black_phrase_E_06_439"
    INDEX 01 09:22:32
  TRACK 440 AUDIO
    TITLE "LR_black_phrase_E_06_440"
    INDEX 01 09:23:27
  TRACK 441 AUDIO
    TITLE "LR_black_phrase_E_06_441"
    INDEX 01 09:24:60
  TRACK 442 AUDIO
    TITLE "LR_black_phrase_E_06_442"
    INDEX 01 09:25:05
  TRACK 443 AUDIO
    TITLE "LR_black_phrase_E_06_443"
    INDEX 01 09:27:54
  TRACK 444 AUDIO
    TITLE "LR_black_phrase_E_06_444"
    INDEX 01 09:28:38
  TRACK 445 AUDIO
    TITLE "LR_black_phrase_E_06_445"
    INDEX 01 09:31:21
  TRACK 446 AUDIO
    TITLE "LR_black_phrase_E_06_446"
    INDEX 01 09:32:24
  TRACK 447 AUDIO
    TITLE "LR_black_phrase_E_06_447"
    INDEX 01 09:33:51
  TRACK 448 AUDIO
    TITLE "LR_black_phrase_E_06_448"
    INDEX 01 09:33:75
  TRACK 449 AUDIO
    TITLE "LR_black_phrase_E_06_449"
    INDEX 01 09:36:51
  TRACK 450 AUDIO
    TITLE "LR_black_phrase_E_06_450"
    INDEX 01 09:37:21
  TRACK 451 AUDIO
    TITLE "LR_black_phrase_E_06_451"
    INDEX 01 09:39:73
  TRACK 452 AUDIO
    TITLE "LR_black_phrase_E_06_452"
    INDEX 01 09:40:69
  TRACK 453 AUDIO
    TITLE "LR_black_phrase_E_06_453"
    INDEX 01 09:42:09
  TRACK 454 AUDIO
    TITLE "LR_black_phrase_E_06_454"
    INDEX 01 09:42:40
  TRACK 455 AUDIO
    TITLE "LR_black_phrase_E_06_455"
    INDEX 01 09:44:57
  TRACK 456 AUDIO
    TITLE "LR_black_phrase_E_06_456"
    INDEX 01 09:45:35
  TRACK 457 AUDIO
    TITLE "LR_black_phrase_E_06_457"
    INDEX 01 09:47:51
  TRACK 458 AUDIO
    TITLE "LR_black_phrase_E_06_458"
    INDEX 01 09:48:51
  TRACK 459 AUDIO
    TITLE "LR_black_phrase_E_06_459"
    INDEX 01 09:49:52
  TRACK 460 AUDIO
    TITLE "LR_black_phrase_E_06_460"
    INDEX 01 09:49:72
  TRACK 461 AUDIO
    TITLE "LR_black_phrase_E_06_461"
    INDEX 01 09:52:01
  TRACK 462 AUDIO
    TITLE "LR_black_phrase_E_06_462"
    INDEX 01 09:52:43
  TRACK 463 AUDIO
    TITLE "LR_black_phrase_E_06_463"
    INDEX 01 09:54:47
  TRACK 464 AUDIO
    TITLE "LR_black_phrase_E_06_464"
    INDEX 01 09:55:43
  TRACK 465 AUDIO
    TITLE "LR_black_phrase_E_06_465"
    INDEX 01 09:56:50
  TRACK 466 AUDIO
    TITLE "LR_black_phrase_E_06_466"
    INDEX 01 09:56:74
  TRACK 467 AUDIO
    TITLE "LR_black_phrase_E_06_467"
    INDEX 01 09:58:47
  TRACK 468 AUDIO
    TITLE "LR_black_phrase_E_06_468"
    INDEX 01 09:59:17
  TRACK 469 AUDIO
    TITLE "LR_black_phrase_E_06_469"
    INDEX 01 10:00:68
  TRACK 470 AUDIO
    TITLE "LR_black_phrase_E_06_470"
    INDEX 01 10:01:65
  TRACK 471 AUDIO
    TITLE "LR_black_phrase_E_06_471"
    INDEX 01 10:03:11
  TRACK 472 AUDIO
    TITLE "LR_black_phrase_E_06_472"
    INDEX 01 10:03:35
  TRACK 473 AUDIO
    TITLE "LR_black_phrase_E_06_473"
    INDEX 01 10:05:53
  TRACK 474 AUDIO
    TITLE "LR_black_phrase_E_06_474"
    INDEX 01 10:06:29
  TRACK 475 AUDIO
    TITLE "LR_black_phrase_E_06_475"
    INDEX 01 10:08:46
  TRACK 476 AUDIO
    TITLE "LR_black_phrase_E_06_476"
    INDEX 01 10:09:39
  TRACK 477 AUDIO
    TITLE "LR_black_phrase_E_06_477"
    INDEX 01 10:10:64
  TRACK 478 AUDIO
    TITLE "LR_black_phrase_E_06_478"
    INDEX 01 10:11:07
  TRACK 479 AUDIO
    TITLE "LR_black_phrase_E_06_479"
    INDEX 01 10:13:25
  TRACK 480 AUDIO
    TITLE "LR_black_phrase_E_06_480"
    INDEX 01 10:13:70
  TRACK 481 AUDIO
    TITLE "LR_black_phrase_E_06_481"
    INDEX 01 10:16:12
  TRACK 482 AUDIO
    TITLE "LR_black_phrase_E_06_482"
    INDEX 01 10:17:13
  TRACK 483 AUDIO
    TITLE "LR_black_phrase_E_06_483"
    INDEX 01 10:18:20
  TRACK 484 AUDIO
    TITLE "LR_black_phrase_E_06_484"
    INDEX 01 10:18:50
  TRACK 485 AUDIO
    TITLE "LR_black_phrase_E_06_485"
    INDEX 01 10:20:47
  TRACK 486 AUDIO
    TITLE "LR_black_phrase_E_06_486"
    INDEX 01 10:21:29
  TRACK 487 AUDIO
    TITLE "LR_black_phrase_E_06_487"
    INDEX 01 10:23:28
  TRACK 488 AUDIO
    TITLE "LR_black_phrase_E_06_488"
    INDEX 01 10:24:29
  TRACK 489 AUDIO
    TITLE "LR_black_phrase_E_06_489"
    INDEX 01 10:25:38
  TRACK 490 AUDIO
    TITLE "LR_black_phrase_E_06_490"
    INDEX 01 10:25:68
  TRACK 491 AUDIO
    TITLE "LR_black_phrase_E_06_491"
    INDEX 01 10:28:46
  TRACK 492 AUDIO
    TITLE "LR_black_phrase_E_06_492"
    INDEX 01 10:29:24
  TRACK 493 AUDIO
    TITLE "LR_black_phrase_E_06_493"
    INDEX 01 10:32:03
  TRACK 494 AUDIO
    TITLE "LR_black_phrase_E_06_494"
    INDEX 01 10:33:06
  TRACK 495 AUDIO
    TITLE "LR_black_phrase_E_06_495"
    INDEX 01 10:34:10
  TRACK 496 AUDIO
    TITLE "LR_black_phrase_E_06_496"
    INDEX 01 10:34:37
  TRACK 497 AUDIO
    TITLE "LR_black_phrase_E_06_497"
    INDEX 01 10:37:04
  TRACK 498 AUDIO
    TITLE "LR_black_phrase_E_06_498"
    INDEX 01 10:37:59
  TRACK 499 AUDIO
    TITLE "LR_black_phrase_E_06_499"
    INDEX 01 10:40:28
  TRACK 500 AUDIO
    TITLE "LR_black_phrase_E_06_500"
    INDEX 01 10:41:31
  TRACK 501 AUDIO
    TITLE "LR_black_phrase_E_06_501"
    INDEX 01 10:42:48
  TRACK 502 AUDIO
    TITLE "LR_black_phrase_E_06_502"
    INDEX 01 10:43:05
  TRACK 503 AUDIO
    TITLE "LR_black_phrase_E_06_503"
    INDEX 01 10:45:45
  TRACK 504 AUDIO
    TITLE "LR_black_phrase_E_06_504"
    INDEX 01 10:46:25
  TRACK 505 AUDIO
    TITLE "LR_black_phrase_E_06_505"
    INDEX 01 10:48:65
  TRACK 506 AUDIO
    TITLE "LR_black_phrase_E_06_506"
    INDEX 01 10:49:70
  TRACK 507 AUDIO
    TITLE "LR_black_phrase_E_06_507"
    INDEX 01 10:51:02
  TRACK 508 AUDIO
    TITLE "LR_black_phrase_E_06_508"
    INDEX 01 10:51:34
  TRACK 509 AUDIO
    TITLE "LR_black_phrase_E_06_509"
    INDEX 01 10:53:23
  TRACK 510 AUDIO
    TITLE "LR_black_phrase_E_06_510"
    INDEX 01 10:54:07
  TRACK 511 AUDIO
    TITLE "LR_black_phrase_E_06_511"
    INDEX 01 10:55:69
  TRACK 512 AUDIO
    TITLE "LR_black_phrase_E_06_512"
    INDEX 01 10:56:72
  TRACK 513 AUDIO
    TITLE "LR_black_phrase_E_06_513"
    INDEX 01 10:58:20
  TRACK 514 AUDIO
    TITLE "LR_black_phrase_E_06_514"
    INDEX 01 10:58:49
  TRACK 515 AUDIO
    TITLE "LR_black_phrase_E_06_515"
    INDEX 01 11:01:36
  TRACK 516 AUDIO
    TITLE "LR_black_phrase_E_06_516"
    INDEX 01 11:02:18
  TRACK 517 AUDIO
    TITLE "LR_black_phrase_E_06_517"
    INDEX 01 11:05:04
  TRACK 518 AUDIO
    TITLE "LR_black_phrase_E_06_518"
    INDEX 01 11:06:10
  TRACK 519 AUDIO
    TITLE "LR_black_phrase_E_06_519"
    INDEX 01 11:07:33
  TRACK 520 AUDIO
    TITLE "LR_black_phrase_E_06_520"
    INDEX 01 11:07:62
  TRACK 521 AUDIO
    TITLE "LR_black_phrase_E_06_521"
    INDEX 01 11:10:07
  TRACK 522 AUDIO
    TITLE "LR_black_phrase_E_06_522"
    INDEX 01 11:10:62
  TRACK 523 AUDIO
    TITLE "LR_black_phrase_E_06_523"
    INDEX 01 11:13:08
  TRACK 524 AUDIO
    TITLE "LR_black_phrase_E_06_524"
    INDEX 01 11:14:13
  TRACK 525 AUDIO
    TITLE "LR_black_phrase_E_06_525"
    INDEX 01 11:15:38
  TRACK 526 AUDIO
    TITLE "LR_black_phrase_E_06_526"
    INDEX 01 11:15:67
  TRACK 527 AUDIO
    TITLE "LR_black_phrase_E_06_527"
    INDEX 01 11:17:43
  TRACK 528 AUDIO
    TITLE "LR_black_phrase_E_06_528"
    INDEX 01 11:18:23
  TRACK 529 AUDIO
    TITLE "LR_black_phrase_E_06_529"
    INDEX 01 11:19:73
  TRACK 530 AUDIO
    TITLE "LR_black_phrase_E_06_530"
    INDEX 01 11:21:01
  TRACK 531 AUDIO
    TITLE "LR_black_phrase_E_06_531"
    INDEX 01 11:22:19
  TRACK 532 AUDIO
    TITLE "LR_black_phrase_E_06_532"
    INDEX 01 11:22:48
  TRACK 533 AUDIO
    TITLE "LR_black_phrase_E_06_533"
    INDEX 01 11:25:01
  TRACK 534 AUDIO
    TITLE "LR_black_phrase_E_06_534"
    INDEX 01 11:25:56
  TRACK 535 AUDIO
    TITLE "LR_black_phrase_E_06_535"
    INDEX 01 11:28:11
  TRACK 536 AUDIO
    TITLE "LR_black_phrase_E_06_536"
    INDEX 01 11:29:17
  TRACK 537 AUDIO
    TITLE "LR_black_phrase_E_06_537"
    INDEX 01 11:30:47
  TRACK 538 AUDIO
    TITLE "LR_black_phrase_E_06_538"
    INDEX 01 11:31:02
  TRACK 539 AUDIO
    TITLE "LR_black_phrase_E_06_539"
    INDEX 01 11:33:54
  TRACK 540 AUDIO
    TITLE "LR_black_phrase_E_06_540"
    INDEX 01 11:34:35
  TRACK 541 AUDIO
    TITLE "LR_black_phrase_E_06_541"
    INDEX 01 11:37:12
  TRACK 542 AUDIO
    TITLE "LR_black_phrase_E_06_542"
    INDEX 01 11:38:14
  TRACK 543 AUDIO
    TITLE "LR_black_phrase_E_06_543"
    INDEX 01 11:39:37
  TRACK 544 AUDIO
    TITLE "LR_black_phrase_E_06_544"
    INDEX 01 11:39:58
  TRACK 545 AUDIO
    TITLE "LR_black_phrase_E_06_545"
    INDEX 01 11:42:09
  TRACK 546 AUDIO
    TITLE "LR_black_phrase_E_06_546"
    INDEX 01 11:42:55
  TRACK 547 AUDIO
    TITLE "LR_black_phrase_E_06_547"
    INDEX 01 11:45:06
  TRACK 548 AUDIO
    TITLE "LR_black_phrase_E_06_548"
    INDEX 01 11:46:01
  TRACK 549 AUDIO
    TITLE "LR_black_phrase_E_06_549"
    INDEX 01 11:47:24
  TRACK 550 AUDIO
    TITLE "LR_black_phrase_E_06_550"
    INDEX 01 11:47:52
  TRACK 551 AUDIO
    TITLE "LR_black_phrase_E_06_551"
    INDEX 01 11:49:68
  TRACK 552 AUDIO
    TITLE "LR_black_phrase_E_06_552"
    INDEX 01 11:50:44
  TRACK 553 AUDIO
    TITLE "LR_black_phrase_E_06_553"
    INDEX 01 11:52:61
  TRACK 554 AUDIO
    TITLE "LR_black_phrase_E_06_554"
    INDEX 01 11:53:56
  TRACK 555 AUDIO
    TITLE "LR_black_phrase_E_06_555"
    INDEX 01 11:55:08
  TRACK 556 AUDIO
    TITLE "LR_black_phrase_E_06_556"
    INDEX 01 11:55:39
  TRACK 557 AUDIO
    TITLE "LR_black_phrase_E_06_557"
    INDEX 01 11:58:36
  TRACK 558 AUDIO
    TITLE "LR_black_phrase_E_06_558"
    INDEX 01 11:59:12
  TRACK 559 AUDIO
    TITLE "LR_black_phrase_E_06_559"
    INDEX 01 12:02:10
  TRACK 560 AUDIO
    TITLE "LR_black_phrase_E_06_560"
    INDEX 01 12:03:04
  TRACK 561 AUDIO
    TITLE "LR_black_phrase_E_06_561"
    INDEX 01 12:04:17
  TRACK 562 AUDIO
    TITLE "LR_black_phrase_E_06_562"
    INDEX 01 12:04:40
  TRACK 563 AUDIO
    TITLE "LR_black_phrase_E_06_563"
    INDEX 01 12:07:13
  TRACK 564 AUDIO
    TITLE "LR_black_phrase_E_06_564"
    INDEX 01 12:07:62
  TRACK 565 AUDIO
    TITLE "LR_black_phrase_E_06_565"
    INDEX 01 12:10:35
  TRACK 566 AUDIO
    TITLE "LR_black_phrase_E_06_566"
    INDEX 01 12:11:35
  TRACK 567 AUDIO
    TITLE "LR_black_phrase_E_06_567"
    INDEX 01 12:12:40
  TRACK 568 AUDIO
    TITLE "LR_black_phrase_E_06_568"
    INDEX 01 12:12:63
  TRACK 569 AUDIO
    TITLE "LR_black_phrase_E_06_569"
    INDEX 01 12:14:45
  TRACK 570 AUDIO
    TITLE "LR_black_phrase_E_06_570"
    INDEX 01 12:15:23
  TRACK 571 AUDIO
    TITLE "LR_black_phrase_E_06_571"
    INDEX 01 12:17:04
  TRACK 572 AUDIO
    TITLE "LR_black_phrase_E_06_572"
    INDEX 01 12:18:07
  TRACK 573 AUDIO
    TITLE "LR_black_phrase_E_06_573"
    INDEX 01 12:19:20
  TRACK 574 AUDIO
    TITLE "LR_black_phrase_E_06_574"
    INDEX 01 12:19:42
  TRACK 575 AUDIO
    TITLE "LR_black_phrase_E_06_575"
    INDEX 01 12:21:68
  TRACK 576 AUDIO
    TITLE "LR_black_phrase_E_06_576"
    INDEX 01 12:22:36
  TRACK 577 AUDIO
    TITLE "LR_black_phrase_E_06_577"
    INDEX 01 12:24:63
  TRACK 578 AUDIO
    TITLE "LR_black_phrase_E_06_578"
    INDEX 01 12:25:56
  TRACK 579 AUDIO
    TITLE "LR_black_phrase_E_06_579"
    INDEX 01 12:27:02
  TRACK 580 AUDIO
    TITLE "LR_black_phrase_E_06_580"
    INDEX 01 12:27:22
  TRACK 581 AUDIO
    TITLE "LR_black_phrase_E_06_581"
    INDEX 01 12:29:27
  TRACK 582 AUDIO
    TITLE "LR_black_phrase_E_06_582"
    INDEX 01 12:29:72
  TRACK 583 AUDIO
    TITLE "LR_black_phrase_E_06_583"
    INDEX 01 12:32:01
  TRACK 584 AUDIO
    TITLE "LR_black_phrase_E_06_584"
    INDEX 01 12:32:72
  TRACK 585 AUDIO
    TITLE "LR_black_phrase_E_06_585"
    INDEX 01 12:34:14
  TRACK 586 AUDIO
    TITLE "LR_black_phrase_E_06_586"
    INDEX 01 12:34:36
  TRACK 587 AUDIO
    TITLE "LR_black_phrase_E_06_587"
    INDEX 01 12:36:27
  TRACK 588 AUDIO
    TITLE "LR_black_phrase_E_06_588"
    INDEX 01 12:36:72
  TRACK 589 AUDIO
    TITLE "LR_black_phrase_E_06_589"
    INDEX 01 12:38:63
  TRACK 590 AUDIO
    TITLE "LR_black_phrase_E_06_590"
    INDEX 01 12:39:60
  TRACK 591 AUDIO
    TITLE "LR_black_phrase_E_06_591"
    INDEX 01 12:41:10
  TRACK 592 AUDIO
    TITLE "LR_black_phrase_E_06_592"
    INDEX 01 12:41:32
  TRACK 593 AUDIO
    TITLE "LR_black_phrase_E_06_593"
    INDEX 01 12:43:70
  TRACK 594 AUDIO
    TITLE "LR_black_phrase_E_06_594"
    INDEX 01 12:44:40
  TRACK 595 AUDIO
    TITLE "LR_black_phrase_E_06_595"
    INDEX 01 12:47:03
  TRACK 596 AUDIO
    TITLE "LR_black_phrase_E_06_596"
    INDEX 01 12:48:01
  TRACK 597 AUDIO
    TITLE "LR_black_phrase_E_06_597"
    INDEX 01 12:49:23
  TRACK 598 AUDIO
    TITLE "LR_black_phrase_E_06_598"
    INDEX 01 12:49:45
  TRACK 599 AUDIO
    TITLE "LR_black_phrase_E_06_599"
    INDEX 01 12:52:08
  TRACK 600 AUDIO
    TITLE "LR_black_phrase_E_06_600"
    INDEX 01 12:52:51
  TRACK 601 AUDIO
    TITLE "LR_black_phrase_E_06_601"
    INDEX 01 12:55:16
